<?xml version="1.0" encoding="utf-8"?>
<!-- Generator: Adobe Illustrator 16.0.0, SVG Export Plug-In . SVG Version: 6.00 Build 0)  -->
<!DOCTYPE svg PUBLIC "-//W3C//DTD SVG 1.1//EN" "http://www.w3.org/Graphics/SVG/1.1/DTD/svg11.dtd">
<svg version="1.1" id="Layer_1" xmlns="http://www.w3.org/2000/svg" xmlns:xlink="http://www.w3.org/1999/xlink" x="0px" y="0px"
	 width="512px" height="512px" viewBox="0 0 512 512" enable-background="new 0 0 512 512" xml:space="preserve">
<path d="M395.744,186.372l-21.921-21.92l18.031-18.031c16.067,0.467,32.284-5.415,44.548-17.678
	c23.627-23.626,23.627-61.933,0-85.56c-23.627-23.627-61.934-23.627-85.56,0c-12.264,12.263-18.145,28.48-17.678,44.547
	l-18.031,18.031l-20.507-20.506c-3.905-3.905-10.236-3.905-14.142,0l-5.657,5.657c-3.904,3.905-3.904,10.237,0,14.142l20.507,20.506
	L125.629,295.266l-18.385,79.196l77.075-20.506l169.706-169.706l21.92,21.92c3.905,3.904,10.237,3.905,14.143,0l5.657-5.657
	C399.65,196.609,399.649,190.277,395.744,186.372z M180.007,344.127l-60.813,17.536l15.912-62.438l166.947-166.947l44.901,44.901
	L180.007,344.127z"/>
<g id="_x23_231f20ff">
	<path d="M107.112,384.223l0.248,0.021c1.957,14.615,10.26,27.208,17.908,39.439c4.291,6.867,8.66,13.767,11.609,21.342
		c2.541,6.521,3.938,13.727,2.58,20.682c-1.522,8.953-7.023,17.131-14.727,21.936c-6.98,4.472-15.709,6.131-23.833,4.457
		c-7.605-1.459-14.604-5.787-19.377-11.876c-4.273-5.39-6.746-12.164-7.004-19.028c-0.324-10.53,4.409-20.355,9.609-29.227
		c6.867-11.694,15.096-22.738,19.866-35.536C105.453,392.488,106.63,388.408,107.112,384.223"/>
</g>
</svg>
